<?xml version="1.0" standalone="no"?>
<!DOCTYPE svg PUBLIC "-//W3C//DTD SVG 20010904//EN"
 "http://www.w3.org/TR/2001/REC-SVG-20010904/DTD/svg10.dtd">
<svg version="1.0" xmlns="http://www.w3.org/2000/svg"
 width="260.000000pt" height="260.000000pt" viewBox="0 0 260.000000 260.000000"
 preserveAspectRatio="xMidYMid meet">
<metadata>
Created by potrace 1.14, written by Peter Selinger 2001-2017
</metadata>
<g transform="translate(0.000000,260.000000) scale(0.100000,-0.100000)"
fill="#000000" stroke="none">
<path d="M760 1315 l0 -1105 473 1 472 0 -89 25 c-171 47 -380 154 -476 244
-25 23 -34 35 -20 26 14 -9 36 -22 50 -30 l26 -14 1 168 c1 93 4 173 7 178 3
6 -4 21 -15 36 -27 34 -16 33 30 -3 43 -34 135 -91 146 -91 5 0 -23 22 -61 49
-275 194 -396 472 -317 726 35 114 83 186 197 299 84 84 99 102 62 77 -26 -18
-62 -45 -79 -60 -18 -15 -45 -35 -62 -45 l-30 -19 20 22 c31 36 135 111 185
135 25 11 47 23 50 26 15 16 171 83 259 112 l101 32 0 158 0 158 -465 0 -465
0 0 -1105z"/>
<path d="M1618 2034 c-121 -51 -247 -147 -312 -237 -105 -147 -118 -303 -39
-449 60 -112 200 -231 347 -298 36 -17 68 -30 71 -30 3 0 5 234 5 520 0 286
-3 520 -7 519 -5 0 -34 -12 -65 -25z"/>
<path d="M1309 1888 c-105 -70 -199 -172 -247 -269 -50 -102 -61 -149 -62
-254 0 -162 57 -292 185 -420 69 -69 157 -135 180 -135 4 0 -19 20 -51 44 -65
48 -158 142 -133 133 14 -5 16 13 19 151 2 87 2 200 0 252 -5 135 -4 217 1
282 5 63 -2 78 -27 57 -16 -13 -16 -12 -6 8 15 28 137 137 188 168 21 14 34
25 28 25 -7 0 -40 -19 -75 -42z"/>
</g>
</svg>
